PathFileType	4	(X/Y/Z)	/Users/itak/Documents/Research/Walk-IL/dataset/trc/00546_00009.trc
DataRate	CameraRate	NumFrames	NumMarkers	Units	OrigDataRate	OrigDataStartFrame	OrigNumFrames
100.000000	100.000000	4	53	mm	100.000000	0	508
Frame#	Time	RPSI			LPSI			L3			STRN			T10			C7			CLAV			RBAK			LBAK			LSHO			LUPA			LAEL			LAOL			LWTS			LWPS			LFRA			LIFD			LHPS			LHTS			RSHO			RUPA			RAEL			RAOL			RWTS			RWPS			RFRA			RIFD			RHTS			RHPS			RBHD			LFHD			RFHD			LBHD			LHIP			RHIP			RASI			LASI			LKNE			LTHI			LANK			LTIP			LTOE			LMT1			LMT5			LHEE			RKNE			RTHI			RANK			RTIP			RTOE			RMT1			RMT5			RHEE			
		X1	Y1	Z1	X2	Y2	Z2	X3	Y3	Z3	X4	Y4	Z4	X5	Y5	Z5	X6	Y6	Z6	X7	Y7	Z7	X8	Y8	Z8	X9	Y9	Z9	X10	Y10	Z10	X11	Y11	Z11	X12	Y12	Z12	X13	Y13	Z13	X14	Y14	Z14	X15	Y15	Z15	X16	Y16	Z16	X17	Y17	Z17	X18	Y18	Z18	X19	Y19	Z19	X20	Y20	Z20	X21	Y21	Z21	X22	Y22	Z22	X23	Y23	Z23	X24	Y24	Z24	X25	Y25	Z25	X26	Y26	Z26	X27	Y27	Z27	X28	Y28	Z28	X29	Y29	Z29	X30	Y30	Z30	X31	Y31	Z31	X32	Y32	Z32	X33	Y33	Z33	X34	Y34	Z34	X35	Y35	Z35	X36	Y36	Z36	X37	Y37	Z37	X38	Y38	Z38	X39	Y39	Z39	X40	Y40	Z40	X41	Y41	Z41	X42	Y42	Z42	X43	Y43	Z43	X44	Y44	Z44	X45	Y45	Z45	X46	Y46	Z46	X47	Y47	Z47	X48	Y48	Z48	X49	Y49	Z49	X50	Y50	Z50	X51	Y51	Z51	X52	Y52	Z52	X53	Y53	Z53	

1	0	-669.8988037109375	1019.594604492188	401.8047790527344	-664.7133178710938	1022.345703125	268.567626953125	-662.6787109375	1108.729248046875	330.5972900390625	-438.3009338378906	1298.30908203125	326.0570983886719	-677.1558837890625	1233.546752929688	327.76611328125	-635.0803833007812	1508.81103515625	338.6251220703125	-460.080078125	1409.0048828125	327.1342163085938	-704.6804809570312	1381.885864257812	424.9069213867188	-669.3455200195312	1454.53955078125	248.3365936279297	-572.62548828125	1479.737548828125	166.0827941894531	-581.2073364257812	1353.645385742188	85.69212341308594	-552.759765625	1131.527465820312	63.8151969909668	-639.4864501953125	1120.903442382812	115.6786346435547	-449.8840942382812	893.0559692382812	110.1901779174805	-494.6661682128906	867.4320678710938	39.15600204467773	-526.9318237304688	1046.343505859375	57.03670120239258	-442.7452697753906	723.054931640625	107.3505935668945	-481.7912902832031	808.5501708984375	47.27036666870117	-427.5800170898438	817.3229370117188	89.51512908935547	-575.2503662109375	1472.274291992188	493.0746154785156	-592.9652099609375	1408.92236328125	561.4409790039062	-591.2236328125	1119.014404296875	609.2742919921875	-646.4180297851562	1101.286376953125	585.1239013671875	-476.4909362792969	887.1839599609375	573.8106079101562	-496.1689758300781	879.3690795898438	627.8287963867188	-576.6726684570312	1063.546020507812	616.2147216796875	-441.61474609375	727.6004638671875	561.979248046875	-425.9894104003906	810.2074584960938	570.6380004882812	-477.1347961425781	805.046875	624.2539672851562	-581.9984130859375	1685.99072265625	397.6638793945312	-410.0640563964844	1721.67578125	286.1810607910156	-445.9077758789062	1713.992431640625	426.4152221679688	-532.4938354492188	1693.970336914062	239.5403137207031	-535.6749267578125	941.0824584960938	140.3099212646484	-549.6223754882812	943.6254272460938	524.7234497070312	-461.0877380371094	971.855224609375	468.7063598632812	-458.7265930175781	962.5643920898438	192.8480224609375	-534.3369140625	494.6055297851562	201.4365234375	-524.7313842773438	659.6600341796875	161.9789123535156	-620.7394409179688	33.50805282592773	213.0707550048828	-603.1655883789062	251.1450653076172	199.9125671386719	-409.0357666015625	39.66181182861328	264.6131286621094	-480.5971374511719	41.70473861694336	303.0932312011719	-497.9166870117188	35.79007339477539	196.2871856689453	-688.806640625	36.69503021240234	271.2437744140625	-543.685546875	498.3977355957031	477.5195617675781	-516.67333984375	787.5538330078125	522.5764770507812	-631.0867919921875	36.67828750610352	458.5122375488281	-548.7921142578125	356.6115112304688	463.9305725097656	-410.6016845703125	41.91368865966797	425.0126037597656	-472.3006591796875	41.02524948120117	381.8364868164062	-498.0556030273438	37.39767456054688	484.1097106933594	-684.63525390625	30.83646202087402	401.4400329589844	
2	0.01	-669.849609375	1019.599304199219	401.8470458984375	-664.6754150390625	1022.334289550781	268.6086120605469	-662.6641845703125	1108.7158203125	330.6452331542969	-438.2944946289062	1298.3037109375	326.0764465332031	-677.1301879882812	1233.545532226562	327.8100891113281	-635.0701904296875	1508.8095703125	338.6439208984375	-460.1023254394531	1408.985961914062	327.1639709472656	-704.6445922851562	1381.879272460938	424.93310546875	-669.3274536132812	1454.518188476562	248.3504486083984	-572.5902709960938	1479.705810546875	166.1156311035156	-581.2056274414062	1353.6171875	85.72943878173828	-552.707763671875	1131.498168945312	63.85800170898438	-639.4105834960938	1120.83837890625	115.7349319458008	-449.6701049804688	893.1019287109375	110.3730316162109	-494.4194641113281	867.4326782226562	39.34072494506836	-526.8177490234375	1046.30029296875	57.15633773803711	-442.2618713378906	723.0752563476562	107.543586730957	-481.4962158203125	808.5782470703125	47.49865341186523	-427.2789916992188	817.403076171875	89.662841796875	-575.2332763671875	1472.271118164062	493.0833129882812	-592.9447021484375	1408.909423828125	561.4578857421875	-591.273681640625	1118.961303710938	609.1805419921875	-646.41357421875	1101.260986328125	585.0706787109375	-476.5044250488281	887.2415161132812	573.7218627929688	-496.3011779785156	879.2894897460938	627.7680053710938	-576.6873779296875	1063.507568359375	616.1829223632812	-441.7084350585938	727.5128784179688	561.8584594726562	-426.1228637695312	810.0346069335938	570.4951171875	-477.3596801757812	804.9476318359375	624.1016235351562	-581.857666015625	1686.008422851562	397.7412719726562	-410.0570373535156	1721.665405273438	286.1588745117188	-445.8932800292969	1713.972778320312	426.4233093261719	-532.489501953125	1693.966796875	239.5452117919922	-535.6546020507812	941.111328125	140.3866271972656	-549.5537719726562	943.6185913085938	524.7522583007812	-461.0678405761719	971.8507690429688	468.7894897460938	-458.6788635253906	962.6741333007812	192.8179321289062	-534.3283081054688	494.6314697265625	201.4933013916016	-524.6063232421875	659.6721801757812	162.0360412597656	-620.7440795898438	33.47239685058594	212.9942779541016	-603.2449951171875	251.2798004150391	199.887451171875	-409.0459899902344	39.66046905517578	264.6207580566406	-480.590576171875	41.69772338867188	303.1015625	-497.9176025390625	35.80016326904297	196.2960205078125	-688.804443359375	36.6883544921875	271.2364196777344	-543.6698608398438	498.387939453125	477.5326843261719	-516.6038208007812	787.5458984375	522.600341796875	-631.0859985351562	36.67782592773438	458.5112609863281	-548.7818603515625	356.609375	463.9435729980469	-410.6025695800781	41.91474914550781	425.0107116699219	-472.3008117675781	41.02790832519531	381.8353576660156	-498.0503845214844	37.39731216430664	484.1097412109375	-684.6316528320312	30.83621025085449	401.4424133300781	
3	0.02	-669.78955078125	1019.59912109375	401.9015197753906	-664.628173828125	1022.318786621094	268.660400390625	-662.6437377929688	1108.699462890625	330.7060241699219	-438.288330078125	1298.2939453125	326.1069946289062	-677.1001586914062	1233.542846679688	327.8704833984375	-635.0552368164062	1508.806762695312	338.6678466796875	-460.1307373046875	1408.962768554688	327.2031860351562	-704.60009765625	1381.870727539062	424.9659423828125	-669.3064575195312	1454.491577148438	248.3711547851562	-572.5557861328125	1479.662963867188	166.1570434570312	-581.2003173828125	1353.579467773438	85.77668762207031	-552.6452026367188	1131.46240234375	63.91021347045898	-639.3170776367188	1120.755859375	115.8060531616211	-449.3995971679688	893.1542358398438	110.5889587402344	-494.1162414550781	867.4308471679688	39.56607818603516	-526.6718139648438	1046.246459960938	57.30679702758789	-441.7206115722656	723.0901489257812	107.7822799682617	-481.1197814941406	808.60888671875	47.76137924194336	-426.9065246582031	817.4869995117188	89.85700225830078	-575.2098999023438	1472.265747070312	493.0984191894531	-592.9198608398438	1408.893310546875	561.4805297851562	-591.3341674804688	1118.910888671875	609.0867309570312	-646.4242553710938	1101.232177734375	585.010009765625	-476.53271484375	887.3056640625	573.605224609375	-496.4668579101562	879.1810302734375	627.6768188476562	-576.717529296875	1063.4619140625	616.1458129882812	-441.8562927246094	727.403564453125	561.7012939453125	-426.2909240722656	809.844482421875	570.3302001953125	-477.6373596191406	804.8314819335938	623.9403076171875	-581.6934814453125	1686.029174804688	397.8300170898438	-410.0490417480469	1721.65234375	286.1305847167969	-445.8771057128906	1713.944946289062	426.4393005371094	-532.4827270507812	1693.959228515625	239.5508117675781	-535.6202392578125	941.1436767578125	140.4844360351562	-549.4596557617188	943.6082763671875	524.78076171875	-461.0435791015625	971.8474731445312	468.8957824707031	-458.6145629882812	962.8257446289062	192.7732391357422	-534.3140869140625	494.6595458984375	201.5675354003906	-524.4638671875	659.6875610351562	162.10791015625	-620.74951171875	33.42741775512695	212.8953552246094	-603.3160400390625	251.4468078613281	199.8477325439453	-409.0558166503906	39.65894317626953	264.628662109375	-480.58447265625	41.6890869140625	303.1107482910156	-497.9180603027344	35.81090545654297	196.3076934814453	-688.8045654296875	36.68333435058594	271.2303466796875	-543.64794921875	498.3766174316406	477.54931640625	-516.5208740234375	787.5370483398438	522.6350708007812	-631.0850219726562	36.67742919921875	458.5101623535156	-548.768310546875	356.6061401367188	463.9597473144531	-410.6028442382812	41.9146614074707	425.0086059570312	-472.3014221191406	41.02812576293945	381.834228515625	-498.0462341308594	37.396728515625	484.1100769042969	-684.6276245117188	30.83610534667969	401.4450378417969	
4	0.03	-669.7216796875	1019.591369628906	401.9667663574219	-664.5740966796875	1022.29931640625	268.7210998535156	-662.6162109375	1108.680297851562	330.7769470214844	-438.2838134765625	1298.27880859375	326.1502685546875	-677.0674438476562	1233.538330078125	327.9460754394531	-635.0352172851562	1508.80224609375	338.6961364746094	-460.1640625	1408.936767578125	327.2512817382812	-704.5491333007812	1381.860595703125	425.0040283203125	-669.28466796875	1454.461059570312	248.3996734619141	-572.5263671875	1479.609619140625	166.2054443359375	-581.1902465820312	1353.53271484375	85.83219146728516	-552.575439453125	1131.421508789062	63.97004699707031	-639.2106323242188	1120.659057617188	115.8890075683594	-449.0857238769531	893.2073364257812	110.8230056762695	-493.7731323242188	867.4251098632812	39.81879425048828	-526.5000610351562	1046.184814453125	57.48103332519531	-441.1673583984375	723.0960693359375	108.0509567260742	-480.6796875	808.6383056640625	48.0369758605957	-426.4888916015625	817.5654907226562	90.08924102783203	-575.1807250976562	1472.257934570312	493.1206665039062	-592.89208984375	1408.874389648438	561.5089111328125	-591.4024047851562	1118.874145507812	609.008544921875	-646.4573974609375	1101.202392578125	584.947021484375	-476.580078125	887.3702392578125	573.4631958007812	-496.6595458984375	879.0454711914062	627.5537719726562	-576.766845703125	1063.411376953125	616.1061401367188	-442.0675659179688	727.2772827148438	561.5150756835938	-426.4893493652344	809.6544799804688	570.1566772460938	-477.9566040039062	804.7072143554688	623.7879028320312	-581.5194091796875	1686.051513671875	397.9218139648438	-410.04052734375	1721.637084960938	286.0973815917969	-445.859619140625	1713.909057617188	426.4640197753906	-532.4730834960938	1693.94677734375	239.5566558837891	-535.5706176757812	941.1752319335938	140.5984497070312	-549.3406982421875	943.5941162109375	524.8040771484375	-461.0147705078125	971.8464965820312	469.0199584960938	-458.5385131835938	963.0070190429688	192.7165985107422	-534.292236328125	494.6860656738281	201.6567993164062	-524.3104858398438	659.7053833007812	162.1916809082031	-620.7549438476562	33.37973785400391	212.7866821289062	-603.3641967773438	251.6300506591797	199.7966766357422	-409.0641174316406	39.65703964233398	264.6365356445312	-480.5789489746094	41.67907333374023	303.1200561523438	-497.9179992675781	35.82144546508789	196.3213348388672	-688.8073120117188	36.68130874633789	271.2269592285156	-543.619873046875	498.3641662597656	477.5689392089844	-516.4295043945312	787.527587890625	522.6821899414062	-631.083984375	36.67715072631836	458.5091247558594	-548.752685546875	356.6015319824219	463.9789733886719	-410.6025390625	41.91290283203125	425.0064392089844	-472.302734375	41.02569580078125	381.8335266113281	-498.0440673828125	37.39602279663086	484.1107482910156	-684.6239624023438	30.83630561828613	401.4474792480469	
